<svg xmlns="http://www.w3.org/2000/svg" xmlns:xlink="http://www.w3.org/1999/xlink" width="1440" height="264" viewBox="0 0 1440 264"><rect width="100%" height="100%" fill="#DDDDDD"/><path d="M406.04 170.47L424.63 170.47L424.63 183.69L367.43 183.69L367.43 170.47L388.38 170.47L388.38 110.19Q388.38 106.62 388.60 102.83L388.60 102.83L373.73 115.27Q372.44 116.27 371.19 116.52Q369.94 116.77 368.83 116.56Q367.72 116.34 366.86 115.81Q366.00 115.27 365.57 114.63L365.57 114.63L360.00 106.97L391.53 80.16L406.04 80.16L406.04 170.47ZM453.02 144.73L484.48 144.73L484.48 110.91Q484.48 106.12 485.12 100.33L485.12 100.33L453.02 144.73ZM499.85 144.73L512.86 144.73L512.86 154.95Q512.86 156.38 511.93 157.42Q511.01 158.46 509.29 158.46L509.29 158.46L499.85 158.46L499.85 183.69L484.48 183.69L484.48 158.46L440.86 158.46Q439.08 158.46 437.72 157.35Q436.36 156.24 436.00 154.59L436.00 154.59L434.14 145.66L483.12 80.23L499.85 80.23L499.85 144.73ZM535.96 144.73L567.42 144.73L567.42 110.91Q567.42 106.12 568.06 100.33L568.06 100.33L535.96 144.73ZM582.79 144.73L595.80 144.73L595.80 154.95Q595.80 156.38 594.88 157.42Q593.95 158.46 592.23 158.46L592.23 158.46L582.79 158.46L582.79 183.69L567.42 183.69L567.42 158.46L523.80 158.46Q522.02 158.46 520.66 157.35Q519.30 156.24 518.94 154.59L518.94 154.59L517.08 145.66L566.06 80.23L582.79 80.23L582.79 144.73ZM678.82 132L678.82 132Q678.82 145.51 675.92 155.49Q673.02 165.46 667.91 171.97Q662.80 178.47 655.83 181.66Q648.86 184.84 640.78 184.84L640.78 184.84Q632.70 184.84 625.80 181.66Q618.90 178.47 613.82 171.97Q608.75 165.46 605.89 155.49Q603.03 145.51 603.03 132L603.03 132Q603.03 118.41 605.89 108.48Q608.75 98.54 613.82 92.03Q618.90 85.52 625.80 82.34Q632.70 79.16 640.78 79.16L640.78 79.16Q648.86 79.16 655.83 82.34Q662.80 85.52 667.91 92.03Q673.02 98.54 675.92 108.48Q678.82 118.41 678.82 132ZM660.58 132L660.58 132Q660.58 120.77 658.94 113.41Q657.29 106.05 654.54 101.68Q651.79 97.32 648.21 95.57Q644.64 93.82 640.78 93.82L640.78 93.82Q636.99 93.82 633.45 95.57Q629.91 97.32 627.19 101.68Q624.48 106.05 622.87 113.41Q621.26 120.77 621.26 132L621.26 132Q621.26 143.23 622.87 150.59Q624.48 157.95 627.19 162.32Q629.91 166.68 633.45 168.43Q636.99 170.18 640.78 170.18L640.78 170.18Q644.64 170.18 648.21 168.43Q651.79 166.68 654.54 162.32Q657.29 157.95 658.94 150.59Q660.58 143.23 660.58 132ZM792.36 160.03L782.99 169.25L758.75 145.01L734.30 169.39L724.93 160.17L749.39 135.65L726.08 112.34L735.37 103.04L758.68 126.35L781.85 103.19L791.29 112.48L768.05 135.72L792.36 160.03ZM878.44 167.25L904.97 167.25Q907.83 167.25 909.51 168.86Q911.19 170.47 911.19 173.11L911.19 173.11L911.19 183.69L840.26 183.69L840.26 177.83Q840.26 176.04 841.01 174.08Q841.76 172.11 843.41 170.54L843.41 170.54L874.80 139.08Q878.73 135.07 881.84 131.43Q884.95 127.78 887.02 124.21Q889.10 120.63 890.21 116.95Q891.31 113.27 891.31 109.19L891.31 109.19Q891.31 105.47 890.24 102.65Q889.17 99.82 887.20 97.89Q885.24 95.96 882.48 95.00Q879.73 94.03 876.30 94.03L876.30 94.03Q873.15 94.03 870.47 94.93Q867.79 95.82 865.72 97.43Q863.64 99.04 862.21 101.18Q860.78 103.33 860.07 105.90L860.07 105.90Q858.85 109.19 856.92 110.26Q854.99 111.34 851.35 110.76L851.35 110.76L842.05 109.12Q843.12 101.68 846.20 96.07Q849.27 90.46 853.88 86.70Q858.50 82.95 864.47 81.06Q870.44 79.16 877.30 79.16L877.30 79.16Q884.45 79.16 890.38 81.27Q896.32 83.38 900.54 87.24Q904.76 91.10 907.12 96.54Q909.48 101.97 909.48 108.62L909.48 108.62Q909.48 114.34 907.79 119.20Q906.11 124.06 903.29 128.50Q900.47 132.93 896.68 137.08Q892.89 141.22 888.74 145.51L888.74 145.51L865.43 169.32Q868.79 168.32 872.12 167.79Q875.44 167.25 878.44 167.25L878.44 167.25ZM985.77 80.31L955.09 117.84L951.52 122.28Q954.52 120.77 957.99 119.95Q961.46 119.13 965.46 119.13L965.46 119.13Q971.32 119.13 976.86 121.06Q982.41 122.99 986.62 126.89Q990.84 130.78 993.42 136.58Q995.99 142.37 995.99 150.09L995.99 150.09Q995.99 157.31 993.34 163.64Q990.70 169.97 985.91 174.69Q981.12 179.40 974.36 182.12Q967.60 184.84 959.45 184.84L959.45 184.84Q951.16 184.84 944.58 182.19Q938.00 179.55 933.36 174.79Q928.71 170.04 926.24 163.35Q923.78 156.67 923.78 148.52L923.78 148.52Q923.78 141.22 926.74 133.54Q929.71 125.85 935.93 117.56L935.93 117.56L960.60 84.45Q961.88 82.74 964.35 81.52Q966.82 80.31 970.04 80.31L970.04 80.31L985.77 80.31ZM959.10 170.40L959.10 170.40Q963.31 170.40 966.85 168.97Q970.39 167.54 972.93 164.96Q975.47 162.39 976.90 158.92Q978.33 155.45 978.33 151.38L978.33 151.38Q978.33 146.94 976.97 143.40Q975.61 139.87 973.11 137.40Q970.61 134.93 967.10 133.64Q963.60 132.36 959.38 132.36L959.38 132.36Q955.16 132.36 951.73 133.79Q948.30 135.22 945.87 137.76Q943.44 140.29 942.08 143.76Q940.72 147.23 940.72 151.23L940.72 151.23Q940.72 155.52 941.90 159.06Q943.08 162.60 945.40 165.10Q947.73 167.61 951.16 169.00Q954.59 170.40 959.10 170.40ZM1020.16 144.73L1051.62 144.73L1051.62 110.91Q1051.62 106.12 1052.26 100.33L1052.26 100.33L1020.16 144.73ZM1066.99 144.73L1080.00 144.73L1080.00 154.95Q1080.00 156.38 1079.07 157.42Q1078.14 158.46 1076.43 158.46L1076.43 158.46L1066.99 158.46L1066.99 183.69L1051.62 183.69L1051.62 158.46L1008.00 158.46Q1006.21 158.46 1004.86 157.35Q1003.50 156.24 1003.14 154.59L1003.14 154.59L1001.28 145.66L1050.26 80.23L1066.99 80.23L1066.99 144.73Z" fill="#999999"/></svg>