<svg xmlns="http://www.w3.org/2000/svg" xmlns:xlink="http://www.w3.org/1999/xlink" width="40" height="40" viewBox="0 0 40 40"><rect width="100%" height="100%" fill="#000000"/><path d="M6.08 20.80L8.06 20.80L8.06 18.67Q8.06 18.37 8.10 18.01L8.10 18.01L6.08 20.80ZM9.03 20.80L9.85 20.80L9.85 21.44Q9.85 21.53 9.79 21.60Q9.73 21.66 9.62 21.66L9.62 21.66L9.03 21.66L9.03 23.25L8.06 23.25L8.06 21.66L5.32 21.66Q5.20 21.66 5.12 21.60Q5.03 21.53 5.01 21.42L5.01 21.42L4.89 20.86L7.98 16.74L9.03 16.74L9.03 20.80ZM15.07 20L15.07 20Q15.07 20.85 14.89 21.48Q14.71 22.11 14.39 22.52Q14.06 22.92 13.63 23.13Q13.19 23.33 12.68 23.33L12.68 23.33Q12.17 23.33 11.74 23.13Q11.30 22.92 10.98 22.52Q10.66 22.11 10.48 21.48Q10.30 20.85 10.30 20L10.30 20Q10.30 19.14 10.48 18.52Q10.66 17.89 10.98 17.48Q11.30 17.07 11.74 16.87Q12.17 16.67 12.68 16.67L12.68 16.67Q13.19 16.67 13.63 16.87Q14.06 17.07 14.39 17.48Q14.71 17.89 14.89 18.52Q15.07 19.14 15.07 20ZM13.92 20L13.92 20Q13.92 19.29 13.82 18.83Q13.72 18.37 13.54 18.09Q13.37 17.82 13.15 17.71Q12.92 17.60 12.68 17.60L12.68 17.60Q12.44 17.60 12.22 17.71Q11.99 17.82 11.82 18.09Q11.65 18.37 11.55 18.83Q11.45 19.29 11.45 20L11.45 20Q11.45 20.71 11.55 21.17Q11.65 21.63 11.82 21.91Q11.99 22.18 12.22 22.29Q12.44 22.40 12.68 22.40L12.68 22.40Q12.92 22.40 13.15 22.29Q13.37 22.18 13.54 21.91Q13.72 21.63 13.82 21.17Q13.92 20.71 13.92 20ZM22.22 21.76L21.63 22.34L20.10 20.82L18.56 22.35L17.98 21.77L19.51 20.23L18.05 18.76L18.63 18.18L20.10 19.64L21.56 18.19L22.15 18.77L20.69 20.23L22.22 21.76ZM26.12 20.80L28.10 20.80L28.10 18.67Q28.10 18.37 28.14 18.01L28.14 18.01L26.12 20.80ZM29.06 20.80L29.88 20.80L29.88 21.44Q29.88 21.53 29.82 21.60Q29.77 21.66 29.66 21.66L29.66 21.66L29.06 21.66L29.06 23.25L28.10 23.25L28.10 21.66L25.35 21.66Q25.24 21.66 25.15 21.60Q25.07 21.53 25.04 21.42L25.04 21.42L24.93 20.86L28.01 16.74L29.06 16.74L29.06 20.80ZM35.11 20L35.11 20Q35.11 20.85 34.92 21.48Q34.74 22.11 34.42 22.52Q34.10 22.92 33.66 23.13Q33.22 23.33 32.71 23.33L32.71 23.33Q32.20 23.33 31.77 23.13Q31.34 22.92 31.02 22.52Q30.70 22.11 30.52 21.48Q30.34 20.85 30.34 20L30.34 20Q30.34 19.14 30.52 18.52Q30.70 17.89 31.02 17.48Q31.34 17.07 31.77 16.87Q32.20 16.67 32.71 16.67L32.71 16.67Q33.22 16.67 33.66 16.87Q34.10 17.07 34.42 17.48Q34.74 17.89 34.92 18.52Q35.11 19.14 35.11 20ZM33.96 20L33.96 20Q33.96 19.29 33.86 18.83Q33.75 18.37 33.58 18.09Q33.41 17.82 33.18 17.71Q32.96 17.60 32.71 17.60L32.71 17.60Q32.47 17.60 32.25 17.71Q32.03 17.82 31.86 18.09Q31.69 18.37 31.59 18.83Q31.48 19.29 31.48 20L31.48 20Q31.48 20.71 31.59 21.17Q31.69 21.63 31.86 21.91Q32.03 22.18 32.25 22.29Q32.47 22.40 32.71 22.40L32.71 22.40Q32.96 22.40 33.18 22.29Q33.41 22.18 33.58 21.91Q33.75 21.63 33.86 21.17Q33.96 20.71 33.96 20Z" fill="#FFF"/></svg>